<svg height="300px" width="300px" fill="#333366" xmlns="http://www.w3.org/2000/svg" xmlns:xlink="http://www.w3.org/1999/xlink" version="1.1" x="0px" y="0px" viewBox="0 0 88.35 100" enable-background="new 0 0 88.35 100" xml:space="preserve"><polygon points="58.891,84.577 58.891,84.583 58.894,84.591 "/><path d="M58.891,84.583l-4.304-18.77l-0.003-0.006v-0.007c-1.133-4.837-4.672-5.359-6.141-5.359c-0.652,0-1.329,0.086-2.078,0.259  l-0.458,0.108c-1.975,0.463-3.382,1.328-4.305,2.647c-0.108,0.155-0.208,0.316-0.299,0.479c-0.051-0.069-0.102-0.143-0.154-0.214  c-0.679-0.919-1.43-1.794-2.253-2.616c-1.183-1.183-2.473-2.218-3.846-3.099l2.658-11.179c0.731-3.125,0.384-5.734-1.029-7.756  c-0.272-0.388-0.578-0.749-0.918-1.082c1.557-1.264,2.645-3.19,3.243-5.741l0.182-0.781c0.731-3.125,0.384-5.734-1.028-7.756  c-1.257-1.795-3.237-2.989-6.052-3.646c-2.817-0.659-5.12-0.469-7.043,0.583c-2.164,1.184-3.632,3.369-4.363,6.495l-0.184,0.78  c-0.595,2.551-0.475,4.76,0.362,6.584c-0.003,0-0.004,0.001-0.006,0.001c-0.864,0.019-1.749,0.218-2.701,0.615l-12.239,5.02  c-1.716,0.695-2.874,1.688-3.534,3.032c-0.748,1.525-0.733,3.273,0.042,5.193l0.004,0.011l0.004,0.011l4.411,10.719l0.003,0.009  l0.004,0.005c0.189,0.453,0.395,0.854,0.615,1.212c-0.275,0.249-0.545,0.505-0.809,0.77C2.371,65.409,0,71.13,0,77.216  c0,6.085,2.371,11.808,6.674,16.11C10.977,97.63,16.699,100,22.786,100s11.807-2.37,16.11-6.674  c2.514-2.513,4.364-5.509,5.472-8.778l0.743,3.238l0.003,0.008l0.001,0.008c1.131,4.834,4.67,5.357,6.139,5.357  c0.652,0,1.33-0.085,2.075-0.261l0.463-0.108c1.974-0.462,3.381-1.328,4.303-2.647C59.138,88.653,59.407,86.782,58.891,84.583z   M24.115,28.764l0.182-0.78c1.014-4.332,3.439-5.15,6.966-4.324c3.53,0.825,5.341,2.635,4.327,6.966l-0.182,0.781  c-1.014,4.329-3.439,5.147-6.969,4.321C24.912,34.903,23.102,33.094,24.115,28.764z M26.575,38.902l-0.155-0.372  c-0.047-0.114-0.095-0.224-0.146-0.332l3.513,0.821c3.53,0.825,5.339,2.636,4.325,6.966l-2.434,10.24  c-2.776-1.176-5.786-1.794-8.892-1.794c-1.234,0-2.454,0.097-3.648,0.289c-0.068-0.203-0.144-0.405-0.229-0.612l-1.828-4.438  l6.078-2.495l0.008-0.003l0.009-0.006c1.913-0.797,3.166-2.016,3.726-3.618C27.395,42.134,27.29,40.613,26.575,38.902z M5.585,47.1  c-0.843-2.083-0.08-3.127,1.62-3.812l12.256-5.029c2.072-0.864,3.125-0.112,3.83,1.577l0.155,0.372  c0.705,1.69,0.498,2.968-1.576,3.833l-9.218,3.783l3.125,7.585c0.866,2.074,0.114,3.126-1.577,3.831l-0.37,0.154  c-1.691,0.706-2.968,0.498-3.833-1.574L5.585,47.1z M22.786,96.109c-10.437,0-18.896-8.459-18.896-18.894  c0-5.748,2.566-10.895,6.614-14.359c0.672,0.229,1.301,0.294,1.788,0.294c0.899,0,1.829-0.205,2.841-0.628l0.373-0.154  c1.711-0.714,2.855-1.719,3.501-3.072c0.1-0.213,0.185-0.427,0.256-0.646c1.142-0.215,2.317-0.329,3.521-0.329  c10.436,0,18.896,8.46,18.896,18.896C41.681,87.65,33.222,96.109,22.786,96.109z M53.018,89.49l-0.461,0.107  c-2.098,0.491-3.538,0.004-4.142-2.57l-3.327-14.499c-0.063-0.301-0.133-0.602-0.207-0.9l-0.774-3.378  c-0.604-2.573,0.473-3.649,2.571-4.139l0.461-0.109c2.098-0.49,3.54-0.005,4.142,2.569l4.309,18.777  C56.193,87.924,55.117,88.999,53.018,89.49z"/><polygon points="22.786,100 22.786,100 22.786,100 "/><path d="M61.864,26.198c-0.625,1.082-1.344,1.104-2.227,0.595l-0.195-0.111c-0.882-0.511-1.223-1.145-0.596-2.228l2.67-4.627  c0.626-1.082,1.344-1.105,2.228-0.595l0.195,0.111c0.882,0.51,1.221,1.145,0.596,2.228L61.864,26.198z"/><path d="M56.748,35.058c-0.626,1.083-1.345,1.106-2.228,0.597l-0.194-0.113c-0.883-0.509-1.222-1.144-0.597-2.228l2.672-4.626  c0.623-1.083,1.343-1.106,2.226-0.595l0.195,0.111c0.883,0.51,1.223,1.145,0.596,2.228L56.748,35.058z"/><path d="M51.632,43.92c-0.627,1.083-1.347,1.106-2.229,0.597l-0.193-0.112c-0.882-0.51-1.223-1.143-0.598-2.228l2.672-4.626  c0.624-1.083,1.345-1.105,2.228-0.596l0.193,0.112c0.883,0.51,1.224,1.145,0.598,2.227L51.632,43.92z"/><path d="M71.892,25.002c0.429-1.176,1.133-1.322,2.091-0.974l0.211,0.075c0.958,0.349,1.402,0.916,0.975,2.09l-1.827,5.021  c-0.427,1.175-1.132,1.322-2.09,0.974l-0.21-0.076c-0.957-0.349-1.404-0.915-0.976-2.089L71.892,25.002z"/><path d="M68.394,34.618c0.427-1.177,1.133-1.324,2.089-0.975l0.211,0.075c0.959,0.35,1.403,0.916,0.977,2.091l-1.828,5.02  c-0.427,1.174-1.133,1.321-2.089,0.974l-0.211-0.077c-0.959-0.349-1.403-0.913-0.977-2.089L68.394,34.618z"/><path d="M64.894,44.233c0.429-1.176,1.133-1.324,2.091-0.976l0.21,0.077c0.957,0.349,1.403,0.916,0.975,2.09l-1.827,5.02  c-0.428,1.175-1.131,1.323-2.091,0.975l-0.21-0.077c-0.957-0.349-1.402-0.914-0.974-2.09L64.894,44.233z"/><path d="M66.216,27.839l-0.205-0.094c-0.923-0.431-1.637-0.346-2.167,0.787l-2.257,4.841c-0.529,1.134-0.134,1.736,0.788,2.168  l0.204,0.095c0.924,0.43,1.638,0.344,2.167-0.79l2.258-4.839C67.533,28.873,67.138,28.27,66.216,27.839z"/><path d="M61.89,37.112l-0.203-0.094c-0.923-0.43-1.639-0.346-2.166,0.789l-2.258,4.841c-0.529,1.134-0.136,1.735,0.788,2.168  l0.204,0.094c0.924,0.431,1.638,0.345,2.168-0.788l2.257-4.841C63.208,38.146,62.814,37.543,61.89,37.112z"/><path d="M87.405,10.717c-1.379-3.231-4.236-5.82-8.73-7.916l-1.491-0.696c-4.495-2.097-8.314-2.621-11.676-1.602  c-3.812,1.157-6.803,4.158-9.141,9.175l-1.563,3.348l3.251,1.516l-2.71,3.872c-0.718,1.024-0.436,1.686,0.401,2.271l0.183,0.128  c0.835,0.583,1.554,0.624,2.271-0.401l3.063-4.375l6.906,3.22L65.912,24.1c-0.529,1.134-0.134,1.736,0.788,2.166l0.205,0.096  c0.923,0.431,1.637,0.346,2.166-0.789l2.258-4.841l6.906,3.219l-1.384,5.162c-0.324,1.207,0.17,1.732,1.153,1.996l0.216,0.058  c0.985,0.264,1.674,0.056,1.999-1.153l1.224-4.566l3.251,1.516l1.561-3.347C88.594,18.6,88.97,14.379,87.405,10.717z M82.907,22.056  L59.714,11.241c3.88-8.324,9.126-8.95,15.907-5.788l1.492,0.695C83.894,9.311,86.787,13.733,82.907,22.056z"/><path d="M75.357,40.992l0.216,0.059c0.985,0.263,1.674,0.056,1.999-1.153l1.381-5.16c0.324-1.207-0.168-1.732-1.153-1.997  l-0.216-0.059c-0.985-0.263-1.675-0.056-1.998,1.153l-1.382,5.162C73.879,40.204,74.372,40.729,75.357,40.992z"/><path d="M74.921,49.781l1.383-5.159c0.325-1.207-0.167-1.732-1.152-1.997l-0.217-0.059c-0.984-0.264-1.674-0.056-1.998,1.153  l-1.382,5.161c-0.323,1.207,0.169,1.73,1.154,1.995l0.216,0.059C73.91,51.198,74.599,50.99,74.921,49.781z"/><path d="M54.995,22.149l-0.186-0.129c-0.834-0.583-1.555-0.624-2.271,0.401l-3.064,4.374c-0.717,1.025-0.433,1.687,0.401,2.272  l0.184,0.129c0.836,0.583,1.553,0.624,2.271-0.401l3.064-4.375C56.112,23.396,55.829,22.734,54.995,22.149z"/><path d="M49.125,30.531l-0.185-0.127c-0.835-0.585-1.552-0.625-2.27,0.4l-3.065,4.374c-0.719,1.025-0.434,1.687,0.4,2.271  l0.185,0.13c0.834,0.583,1.553,0.624,2.271-0.401l3.064-4.375C50.243,31.777,49.958,31.117,49.125,30.531z"/></svg>