<svg xmlns="http://www.w3.org/2000/svg" version="1.1" xmlns:xlink="http://www.w3.org/1999/xlink" xmlns:svgjs="http://svgjs.com/svgjs" width="512" height="512" x="0" y="0" viewBox="0 0 511.95 511.95" style="enable-background:new 0 0 512 512" xml:space="preserve" class="hovered-paths"><g><g xmlns="http://www.w3.org/2000/svg"><path d="m40.775 332.75c-41.03 41.04-41.03 107.46 0 148.5 40.95 40.94 107.56 40.93 148.5-.01l10.59-10.61-148.49-148.5z" fill="#333366" data-original="#000000" style="" class="hovered-path"></path><path d="m375.055 295.17c40.937-40.937 40.947-107.552 0-148.5-40.86-40.86-107.277-41.213-148.5.01l-10.59 10.6 148.5 148.5z" fill="#333366" data-original="#000000" style="" class="hovered-path"></path><path d="m194.765 178.51-122.19 122.4 148.49 148.49 122.2-122.39z" fill="#333366" data-original="#000000" style="" class="hovered-path"></path><path d="m462.257 119.692c8.239-16.8 5.394-37.706-8.562-51.662-13.823-13.823-34.48-16.743-51.207-8.779l-23.037-23.037 10.607-10.607c5.858-5.857 5.858-15.355 0-21.213-5.856-5.857-15.354-5.858-21.213 0-15.195 15.195-27.237 27.237-42.427 42.426-5.858 5.857-5.858 15.355 0 21.213 5.857 5.858 15.355 5.857 21.213 0l10.606-10.606 21.212 21.212-20.394 20.401c13.63 6.54 26.2 15.41 37.21 26.42 11.15 11.15 19.94 23.79 26.36 37.28l19.872-19.872c42.371 52.957 39.04 130.671-10.012 179.723l-54.859 54.859h-.001c-16.72-7.97-37.38-5.04-51.21 8.78-17.59 17.59-17.58 46.05 0 63.64 17.55 17.55 46.1 17.55 63.64 0 13.868-13.869 16.799-34.496 8.802-51.225l54.841-54.84c61.34-61.341 64.193-159.36 8.559-224.113z" fill="#333366" data-original="#000000" style="" class="hovered-path"></path></g></g></svg>