<svg height="300px" width="300px" fill="#333366" xmlns="http://www.w3.org/2000/svg" xmlns:xlink="http://www.w3.org/1999/xlink" version="1.1" x="0px" y="0px" viewBox="0 0 64 64" style="enable-background:new 0 0 64 64;" xml:space="preserve"><g><path d="M25.99,22.46l-3.53,3.53c-0.58,0.58-1.35,0.88-2.17,0.88c-0.37,0-0.75-0.06-1.13-0.19c-0.39-0.12-0.78-0.33-1.13-0.62   L7.86,17.73c-0.43-0.36-0.77-0.8-0.99-1.26c-0.63-1.27-0.41-2.77,0.54-3.72l5.35-5.35c0.94-0.95,2.44-1.17,3.73-0.53   c0.44,0.21,0.88,0.55,1.23,0.97l8.33,10.17c0.29,0.36,0.5,0.75,0.63,1.17C27.09,20.35,26.83,21.62,25.99,22.46z M44.74,57.44   L36.4,47.25c-0.46-0.57-0.79-1.18-0.99-1.84c-0.09-0.27-0.16-0.55-0.21-0.83c-2.1,0.52-4.31,0.53-6.41,0   c-0.05,0.3-0.11,0.6-0.22,0.89c-0.19,0.61-0.52,1.21-0.96,1.76l-8.33,10.18c-0.37,0.45-0.8,0.82-1.25,1.13   C22.31,60.8,27.09,62,32,62c4.91,0,9.68-1.2,13.97-3.46C45.53,58.24,45.11,57.87,44.74,57.44z M57.14,47.52   c-0.22-0.46-0.56-0.9-0.99-1.26l-10.17-8.32c-0.36-0.29-0.75-0.5-1.13-0.62c-1.2-0.41-2.46-0.15-3.3,0.69l-3.53,3.53   c-0.84,0.84-1.1,2.1-0.7,3.28c0.13,0.42,0.34,0.81,0.63,1.17l8.33,10.17c0.36,0.43,0.79,0.77,1.23,0.97   c0.5,0.25,1.02,0.36,1.54,0.36c0.82,0,1.62-0.31,2.19-0.89l5.36-5.36C57.55,50.3,57.76,48.8,57.14,47.52z M35.43,18.5   c0.18-0.57,0.51-1.19,0.95-1.73l8.34-10.18c0.37-0.45,0.8-0.82,1.25-1.13C41.69,3.2,36.91,2,32,2c-4.91,0-9.68,1.2-13.97,3.46   c0.44,0.3,0.87,0.67,1.23,1.1l8.34,10.19c0.46,0.57,0.79,1.18,0.99,1.84c0.09,0.27,0.16,0.55,0.21,0.83   c2.1-0.53,4.31-0.52,6.41,0.01C35.26,19.11,35.33,18.81,35.43,18.5z M58.54,18.03c-0.3,0.45-0.67,0.87-1.11,1.23L47.25,27.6   c-0.57,0.46-1.18,0.79-1.84,0.99c-0.25,0.09-0.53,0.16-0.81,0.2C44.86,29.84,45,30.9,45,32c0,1.1-0.14,2.17-0.41,3.21   c0.3,0.05,0.61,0.12,0.9,0.23c0.57,0.17,1.19,0.51,1.74,0.95l10.18,8.33c0.45,0.37,0.82,0.8,1.13,1.26C60.8,41.68,62,36.91,62,32   C62,27.09,60.8,22.32,58.54,18.03z M56.6,12.76l-5.35-5.35c-0.94-0.96-2.45-1.17-3.72-0.54c-0.46,0.22-0.89,0.56-1.26,0.99   l-8.33,10.17c-0.29,0.35-0.5,0.74-0.62,1.13c-0.41,1.2-0.15,2.47,0.69,3.3l3.53,3.53c0.58,0.58,1.36,0.88,2.18,0.88   c0.36,0,0.73-0.06,1.1-0.19c0.42-0.13,0.81-0.34,1.17-0.63l10.17-8.33c0.42-0.35,0.76-0.78,0.98-1.24   C57.76,15.2,57.55,13.7,56.6,12.76z M6.56,44.74l10.18-8.34c0.57-0.46,1.18-0.79,1.84-0.99c0.25-0.09,0.53-0.16,0.81-0.2   C19.14,34.16,19,33.1,19,32c0-1.1,0.14-2.17,0.41-3.21c-0.3-0.05-0.61-0.13-0.91-0.23c-0.57-0.17-1.19-0.51-1.74-0.96L6.59,19.28   c-0.45-0.37-0.82-0.8-1.13-1.26C3.2,22.32,2,27.09,2,32c0,4.91,1.2,9.68,3.46,13.97C5.76,45.53,6.13,45.11,6.56,44.74z    M25.99,41.54l-3.53-3.53c-0.84-0.84-2.11-1.1-3.27-0.7c-0.42,0.13-0.81,0.34-1.17,0.63L7.85,46.27c-0.43,0.36-0.77,0.79-0.98,1.23   C6.24,48.8,6.45,50.3,7.4,51.24l5.35,5.36c0.58,0.59,1.38,0.9,2.2,0.9c0.51,0,1.03-0.12,1.51-0.36c0.46-0.22,0.89-0.56,1.26-0.99   l8.33-10.17c0.28-0.35,0.49-0.74,0.62-1.15C27.09,43.64,26.82,42.38,25.99,41.54z"/></g></svg>