<svg xmlns="http://www.w3.org/2000/svg" version="1.1" xmlns:xlink="http://www.w3.org/1999/xlink" xmlns:svgjs="http://svgjs.com/svgjs" width="512" height="512" x="0" y="0" viewBox="0 0 512 512" style="enable-background:new 0 0 512 512" xml:space="preserve" class=""><g>
<g xmlns="http://www.w3.org/2000/svg">
	<g>
		<path d="M223.999,162.944V16c0-8.832-7.168-16-16-16c-8.832,0-16,7.168-16,16v146.944c-18.592,6.624-32,24.224-32,45.056    c0,20.832,13.408,38.432,32,45.056V416c0,35.296-28.704,64-64,64s-64-28.704-64-64v-42.816l20.992,19.872    c6.4,6.08,16.544,5.792,22.624-0.64c6.048-6.4,5.792-16.544-0.64-22.624l-48-45.44c-4.672-4.416-11.456-5.6-17.344-3.072    s-9.632,8.32-9.632,14.72v80c0,52.928,43.072,96,96,96c52.928,0,96-43.072,96-96V253.056c18.592-6.624,32-24.224,32-45.056    C255.999,187.168,242.591,169.568,223.999,162.944z M207.999,224c-8.832,0-16-7.168-16-16c0-8.832,7.168-16,16-16    c8.832,0,16,7.168,16,16C223.999,216.832,216.831,224,207.999,224z" fill="#509edb" data-original="#000000" style="" class=""></path>
	</g>
</g>
<g xmlns="http://www.w3.org/2000/svg">
	<g>
		<path d="M419.711,383.392c38.944-49.984,60.288-110.976,60.288-175.392c0-10.4-0.64-20.672-1.728-30.88    c-30.4,11.36-62.272,17.504-94.272,17.504s-63.872-6.144-94.272-17.472c-1.088,10.176-1.728,20.448-1.728,30.848    c0,64.416,21.344,125.408,60.288,175.392l-58.24,104.832c-3.328,5.952-2.528,13.28,1.984,18.336    c4.448,5.088,11.616,6.784,17.952,4.288l74.016-29.632l74.048,29.632c1.952,0.768,3.936,1.152,5.952,1.152    c4.512,0,8.896-1.92,12-5.44c4.48-5.056,5.28-12.416,1.984-18.336L419.711,383.392z" fill="#509edb" data-original="#000000" style="" class=""></path>
	</g>
</g>
<g xmlns="http://www.w3.org/2000/svg">
	<g>
		<path d="M395.263,4.64c-6.24-6.176-16.32-6.176-22.56,0c-39.424,39.104-65.856,87.68-77.632,140.576    c57.024,23.008,120.832,23.008,177.824,0.032C461.119,92.352,434.719,43.776,395.263,4.64z M400.639,128    c-8.8,0-16.16-7.168-16.16-16c0-8.832,6.976-16,15.84-16h0.32c8.832,0,16,7.168,16,16C416.639,120.832,409.471,128,400.639,128z" fill="#509edb" data-original="#000000" style="" class=""></path>
	</g>
</g>

</g></svg>