<svg height="300px" width="300px" fill="#509edb" xmlns="http://www.w3.org/2000/svg" xmlns:xlink="http://www.w3.org/1999/xlink" xmlns:serif="http://www.serif.com/" viewBox="0 0 100 101" version="1.1" xml:space="preserve" style="" x="0px" y="0px" fill-rule="evenodd" clip-rule="evenodd" stroke-linejoin="round" stroke-miterlimit="2"><g transform="matrix(1,0,0,1,-450,-112)"><g serif:id="Seite 10" transform="matrix(1,0,0,1,450,112.5)"><rect x="0" y="0" width="100" height="100" style="" fill="none"/><g transform="matrix(1.13186,0,0,1.13186,-515.932,-133.928)"><path d="M536.52,199.417L520.938,199.417C521.925,197.001 523.998,195.146 526.552,194.463L526.552,138.854C526.552,134.011 522.61,130.069 517.765,130.069L511.836,130.069L511.836,130.667L510.038,130.667L510.038,157.811C510.516,157.982 511.196,158.264 511.332,158.477C511.501,158.738 511.537,159.063 511.545,159.374C511.563,159.994 511.487,160.618 511.321,161.216C511.275,161.383 511.214,161.555 511.128,161.707C511.788,162.9 512.772,164.8 513.024,165.942C513.751,167.912 512.127,168.633 510.993,168.151L510.991,168.173L510.038,167.696L510.038,178.99L511.038,178.99L511.038,181.407L504.67,181.407L504.497,184.845L504.422,186.406L504.852,186.406L504.852,187.675C505.344,187.976 505.664,188.524 505.711,189.519L505.717,189.519L505.717,190.462L500.027,190.462L500.027,189.519L500.032,189.519C500.077,188.474 500.399,187.925 500.893,187.636L500.893,186.406L501.254,186.406L501.201,184.845L501.087,181.407L498.726,181.407L498.612,184.845L498.559,186.406L498.92,186.406L498.92,187.637C499.414,187.925 499.736,188.475 499.781,189.519L499.786,189.519L499.786,190.462L494.096,190.462L494.096,189.519L494.102,189.519C494.149,188.524 494.469,187.976 494.961,187.675L494.961,186.406L495.391,186.406L495.315,184.845L495.142,181.407L488.774,181.407L488.774,178.99L489.774,178.99L489.774,167.696L488.822,168.173L488.82,168.151C487.686,168.634 486.062,167.912 486.789,165.942C487.041,164.8 488.025,162.9 488.685,161.707C488.599,161.555 488.538,161.383 488.492,161.216C488.326,160.618 488.25,159.994 488.267,159.374C488.276,159.063 488.312,158.738 488.48,158.477C488.617,158.264 489.297,157.982 489.774,157.811L489.774,130.667L487.977,130.667L487.977,130.069L482.047,130.069C477.203,130.069 473.261,134.011 473.261,138.854L473.261,194.415C475.901,195.056 478.052,196.942 479.062,199.417L463.48,199.417C464.487,196.949 466.631,195.065 469.261,194.42L469.261,138.854C469.261,131.805 474.997,126.069 482.047,126.069L487.977,126.069L487.977,125.583L511.836,125.583L511.836,126.069L517.765,126.069C524.816,126.069 530.552,131.805 530.552,138.854L530.552,194.377C533.268,194.977 535.489,196.89 536.52,199.417ZM494.49,174.798L494.107,174.798L494.102,165.791L491.542,167.208L491.397,166.884L491.038,167.064L491.038,178.99L495.021,178.99L494.984,178.257C494.676,177.895 494.49,177.425 494.49,176.912L494.49,174.798ZM505.706,174.798L505.323,174.798L505.323,176.912C505.323,177.425 505.137,177.895 504.829,178.257L504.792,178.99L508.775,178.99L508.775,167.064L508.416,166.884L508.271,167.208L505.71,165.791L505.706,174.798ZM508.775,157.706L508.775,130.667L491.038,130.667L491.038,157.706C491.096,157.668 491.16,157.641 491.229,157.629C491.534,157.576 491.822,157.842 491.897,158.143C491.971,158.443 491.886,158.757 491.784,159.049C491.697,159.297 491.593,159.545 491.434,159.75C491.435,159.778 491.435,159.806 491.436,159.834C491.444,160.091 491.451,160.348 491.43,160.604C491.411,160.827 491.37,161.049 491.329,161.271C491.301,161.418 491.271,161.572 491.177,161.69C491.138,161.74 491.091,161.78 491.038,161.812L491.038,162.567C492.887,161.258 496.402,158.917 497.907,158.917L497.915,158.917L497.915,157.807C497.733,157.679 497.55,157.535 497.364,157.374C497.024,157.078 496.727,156.604 496.298,156.021C495.935,155.528 495.65,154.79 495.433,153.854L495.353,153.877C495.263,153.893 495.169,153.882 495.079,153.849C494.695,153.716 494.534,153.208 494.417,152.549C494.273,151.737 494.35,151.013 494.831,150.938C494.833,150.937 494.836,150.937 494.838,150.936C494.835,150.937 494.833,150.937 494.83,150.938L494.669,148.923C494.63,147.986 494.939,147.075 495.509,146.347C495.582,146.255 495.656,146.167 495.736,146.082C496.237,145.544 496.738,145.18 497.357,144.949L497.36,144.949C499.401,144.296 500.243,144.537 500.815,143.798C500.873,143.722 501.133,144.372 500.858,144.623C500.858,144.623 501.426,144.57 502.353,144.893L502.354,144.893C503.012,145.103 503.688,145.119 504.523,144.954L504.314,145.424C505.901,145.53 506.498,144.796 506.512,144.772L506.512,144.771C506.512,144.772 506.512,144.772 506.512,144.772C506.208,145.57 506.063,145.909 505.691,146.397L506.29,146.521C505.879,147.034 505.467,147.449 505.057,147.782C505.149,148.132 505.192,148.496 505.182,148.863L505.052,150.91C505.012,150.904 504.971,150.905 504.93,150.915C504.956,150.925 504.983,150.933 505.013,150.938C505.494,151.013 505.572,151.737 505.427,152.549C505.311,153.208 505.149,153.716 504.765,153.849C504.675,153.882 504.581,153.893 504.492,153.877L504.411,153.854C504.194,154.79 503.909,155.528 503.547,156.021C503.118,156.604 502.82,157.078 502.48,157.374C502.284,157.544 502.09,157.696 501.898,157.828L501.898,158.917L501.906,158.917C503.411,158.918 506.927,161.259 508.775,162.567L508.775,161.812C508.722,161.78 508.675,161.74 508.635,161.69C508.542,161.572 508.512,161.418 508.484,161.271C508.443,161.049 508.402,160.827 508.383,160.604C508.362,160.348 508.369,160.091 508.377,159.834C508.378,159.807 508.378,159.779 508.379,159.751C508.219,159.546 508.116,159.297 508.029,159.049C507.927,158.757 507.842,158.443 507.916,158.143C507.991,157.842 508.279,157.576 508.584,157.629C508.653,157.641 508.717,157.668 508.775,157.706Z" style="" fill-rule="nonzero"/></g></g></g></svg>