<svg xmlns="http://www.w3.org/2000/svg" version="1.1" xmlns:xlink="http://www.w3.org/1999/xlink" xmlns:svgjs="http://svgjs.com/svgjs" width="512" height="512" x="0" y="0" viewBox="0 0 512 512" style="enable-background:new 0 0 512 512" xml:space="preserve" class="hovered-paths"><g>
<g xmlns="http://www.w3.org/2000/svg">
	<g>
		<g>
			<circle cx="416" cy="32" r="10.667" fill="#333366" data-original="#000000" style="" class="hovered-path"></circle>
			<circle cx="362.667" cy="21.333" r="21.333" fill="#333366" data-original="#000000" style="" class="hovered-path"></circle>
			<path d="M448,133.897V74.979c0-5.896-4.771-10.667-10.667-10.667h-42.667c-5.896,0-10.667,4.771-10.667,10.667V128H96     c-52.938,0-96,43.063-96,96v35.417C0,328.115,55.885,384,124.583,384c37.885,0,73.938-15.698,101.563-44.229     C241.188,324.135,252.25,320,256,320s14.813,4.135,29.875,19.792c26.768,27.647,61.501,43.112,98.125,44.031V416     c0,17.646-14.354,32-32,32h-53.333c-5.885,0-10.667-4.781-10.667-10.667v-10.667c17.646,0,32-14.354,32-32s-14.354-32-32-32h-64     c-17.646,0-32,14.354-32,32s14.354,32,32,32v10.667C224,478.5,257.5,512,298.667,512H352c52.938,0,96-43.063,96-96v-47.818     c38.13-21.326,64-62.057,64-108.766V224C512,182.337,485.167,147.15,448,133.897z M469.333,259.417     c0,45.167-36.74,81.917-81.906,81.927c-26.271,0-51.417-11.063-70.792-31.156c-20.417-21.177-41.958-32.844-60.635-32.844     c-18.667,0-40.198,11.656-60.625,32.833c-19.385,20.094-44.51,31.167-70.76,31.167c-45.188-0.01-81.948-36.76-81.948-81.927V224     c0-29.406,23.927-53.333,53.333-53.333h320c29.406,0,53.333,23.927,53.333,53.333V259.417z" fill="#333366" data-original="#000000" style="" class="hovered-path"></path>
		</g>
	</g>
</g>
</g></svg>