<svg xmlns="http://www.w3.org/2000/svg" version="1.1" xmlns:xlink="http://www.w3.org/1999/xlink" xmlns:svgjs="http://svgjs.com/svgjs" width="512" height="512" x="0" y="0" viewBox="0 0 512.01 512.01" style="enable-background:new 0 0 512 512" xml:space="preserve" class=""><g><path xmlns="http://www.w3.org/2000/svg" d="m511.974 84.638c-.063-7.527-6.766-14.828-14.981-14.622h-481.989c-7.67-.1-15.207 6.631-15 15v341.981c0 8.284 6.716 15 15 15h481.989c8.284 0 15-6.716 15-15 .044-.349-.009-342.032-.019-342.359zm-448.279 327.36h-33.69v-292.795l33.69 31zm70.921 0h-40.921v-40.813h40.922v40.813zm0-70.814h-40.921v-40.854h40.922v40.854zm0-70.854h-40.921v-40.854h40.922v40.854zm0-70.854h-40.921v-40.854h40.922v40.854zm70.922 212.522h-40.921v-40.813h40.921zm0-70.814h-40.921v-40.854h40.921zm0-70.854h-40.921v-40.854h40.921zm0-70.854h-40.921v-40.854h40.921zm70.922 212.522h-40.922v-40.813h40.922zm0-70.814h-40.922v-40.854h40.922zm0-70.854h-40.922v-40.854h40.922zm0-70.854h-40.922v-40.854h40.922zm70.922 212.522h-40.922v-40.813h40.922zm0-70.814h-40.922v-40.854h40.922zm0-70.854h-40.922v-40.854h40.922zm0-70.854h-40.922v-40.854h40.922zm70.92 212.522h-40.921v-40.813h40.921zm0-70.814h-40.921v-40.854h40.921zm0-70.854h-40.921v-40.854h40.921zm0-70.854h-40.921v-40.854h40.921zm-333.756-70.855-31.087-28.605h405.08l-31.087 28.605zm397.447 283.377h-33.69v-261.795l33.69-31z" fill="#333366" data-original="#000000" style="" class=""></path></g></svg>