<svg xmlns="http://www.w3.org/2000/svg" version="1.1" xmlns:xlink="http://www.w3.org/1999/xlink" xmlns:svgjs="http://svgjs.com/svgjs" width="512" height="512" x="0" y="0" viewBox="0 0 511 511" style="enable-background:new 0 0 512 512" xml:space="preserve" class=""><g><path xmlns="http://www.w3.org/2000/svg" id="XMLID_854_" d="m493.999 409v-337h-30v30h-416.999v-30h-30v337h-17v30h64.001v-30h-17.001v-95h416.999v95h-17v30h64.001v-30zm-30-216h-57.5v-61h57.5zm-268.832 0h-60.667v-61h60.667zm30-61h60.667v61h-60.667zm-30 91v61h-60.667v-61zm30 0h60.667v61h-60.667zm90.666 0h60.667v61h-60.667zm0-30v-61h60.667v61zm-211.333-61v61h-57.5v-61zm-57.5 91h57.5v61h-57.5zm359.5 61v-61h57.5v61z" fill="#509edb" data-original="#000000" style="" class=""></path></g></svg>