<svg height="300px" width="300px" fill="#333366" xmlns="http://www.w3.org/2000/svg" xmlns:xlink="http://www.w3.org/1999/xlink" version="1.1" x="0px" y="0px" viewBox="0 0 66 66" enable-background="new 0 0 66 66" xml:space="preserve"><g><path d="M35.5,24.7c2-1,3.8-2.2,5.2-3.5c-1-0.9-1.8-2.1-2.3-3.3c-1,1-2.3,1.9-3.9,2.8c0.6,0.6,1,1.4,1,2.2V24.7z"/><path d="M20.3,39.6c0.8,0,1.5-0.3,2.1-0.7c1.2-0.9,2.7-1.4,4.2-1.4s3,0.5,4.2,1.4c0.6,0.5,1.4,0.7,2.1,0.7   c0.8,0,1.5-0.3,2.1-0.7c0.1-0.1,0.3-0.2,0.5-0.3l-1-5.1v-1.1c-3-0.2-6-1.2-8.8-3.1c-1.4-0.9-1.8-2.8-0.8-4.2   c0.9-1.4,2.8-1.8,4.2-0.8c2,1.3,3.8,1.9,5.5,2.1v-3.5c0-0.8-0.5-1.5-1.2-1.8c-4.3-2-8.7-2-13,0c-0.7,0.3-1.2,1-1.2,1.8v10.6l-1,5.3   c0,0,0,0,0,0C18.8,39.3,19.5,39.6,20.3,39.6z"/><path d="M26.8,18.6c3.5,0,6.3-2.8,6.3-6.3c0-3.5-2.8-6.3-6.3-6.3c-3.5,0-6.3,2.8-6.3,6.3   C20.5,15.7,23.4,18.6,26.8,18.6z"/><path d="M63.9,37.5L61,39.7c-1.6,1.2-3.8,1.2-5.4,0c-2.2-1.6-5.1-1.6-7.2,0c-1.6,1.2-3.8,1.2-5.4,0   c-2.2-1.6-5.1-1.6-7.2,0c-1.6,1.2-3.8,1.2-5.4,0C28,38,25.1,38,23,39.6c-1.6,1.2-3.8,1.2-5.4,0c-2.2-1.6-5.1-1.6-7.2,0   c-1.6,1.2-3.8,1.2-5.4,0L2.7,38l-1-0.8c-0.1-0.1-0.3-0.1-0.4-0.1v1.6c0.2,0,0.3,0,0.4,0.1l1,0.8l2.1,1.6c1.6,1.2,3.8,1.2,5.4,0   c2.2-1.6,5.1-1.6,7.2,0c1.6,1.2,3.8,1.2,5.4,0c2.2-1.6,5.1-1.6,7.2,0c1.6,1.2,3.8,1.2,5.4,0c2.2-1.6,5.1-1.6,7.2,0   c1.6,1.2,3.8,1.2,5.4,0c2.2-1.6,5.1-1.6,7.2,0c1.6,1.2,3.8,1.2,5.4,0l2.9-2.2l0.8,0v-1.6L63.9,37.5z"/><path d="M61,45.6c-1.6,1.2-3.8,1.2-5.4,0c-2.2-1.6-5.1-1.6-7.2,0c-1.6,1.2-3.8,1.2-5.4,0c-2.2-1.6-5.1-1.6-7.2,0   c-1.6,1.2-3.8,1.2-5.4,0C28,44,25.1,44,23,45.6c-1.6,1.2-3.8,1.2-5.4,0c-2.2-1.6-5.1-1.6-7.2,0c-1.6,1.2-3.8,1.2-5.4,0L2.7,44   l-1-0.8c-0.1-0.1-0.3-0.1-0.4-0.1v1.6c0.2,0,0.3,0,0.4,0.1l1,0.8l2.1,1.6c1.6,1.2,3.8,1.2,5.4,0c2.2-1.6,5.1-1.6,7.2,0   c1.6,1.2,3.8,1.2,5.4,0c2.2-1.6,5.1-1.6,7.2,0c1.6,1.2,3.8,1.2,5.4,0c2.2-1.6,5.1-1.6,7.2,0c1.6,1.2,3.8,1.2,5.4,0   c2.2-1.6,5.1-1.6,7.2,0c1.6,1.2,3.8,1.2,5.4,0l2.9-2.2l0.8,0v-1.6l-0.8,0L61,45.6z"/><path d="M61,51.5c-1.6,1.2-3.8,1.2-5.4,0c-2.2-1.6-5.1-1.6-7.2,0c-1.6,1.2-3.8,1.2-5.4,0c-2.2-1.6-5.1-1.6-7.2,0   c-1.6,1.2-3.8,1.2-5.4,0c-2.2-1.6-5.1-1.6-7.2,0c-1.6,1.2-3.8,1.2-5.4,0c-2.2-1.6-5.1-1.6-7.2,0c-1.6,1.2-3.8,1.2-5.4,0l-2.1-1.6   l-1-0.8C1.6,49.1,1.4,49,1.2,49v1.6c0.2,0,0.3,0,0.4,0.1l1,0.8l2.1,1.6c1.6,1.2,3.8,1.2,5.4,0c2.2-1.6,5.1-1.6,7.2,0   c1.6,1.2,3.8,1.2,5.4,0c2.2-1.6,5.1-1.6,7.2,0c1.6,1.2,3.8,1.2,5.4,0c2.2-1.6,5.1-1.6,7.2,0c1.6,1.2,3.8,1.2,5.4,0   c2.2-1.6,5.1-1.6,7.2,0c1.6,1.2,3.8,1.2,5.4,0l2.9-2.2l0.8,0v-1.6l-0.8,0L61,51.5z"/><path d="M61,57.5c-1.6,1.2-3.8,1.2-5.4,0c-2.2-1.6-5.1-1.6-7.2,0c-1.6,1.2-3.8,1.2-5.4,0c-2.2-1.6-5.1-1.6-7.2,0   c-1.6,1.2-3.8,1.2-5.4,0c-2.2-1.6-5.1-1.6-7.2,0c-1.6,1.2-3.8,1.2-5.4,0c-2.2-1.6-5.1-1.6-7.2,0c-1.6,1.2-3.8,1.2-5.4,0l-2.1-1.6   l-1-0.8C1.6,55,1.4,55,1.2,55v1.6c0.2,0,0.3,0,0.4,0.1l1,0.8l2.1,1.6c1.6,1.2,3.8,1.2,5.4,0c2.2-1.6,5.1-1.6,7.2,0   c1.6,1.2,3.8,1.2,5.4,0c2.2-1.6,5.1-1.6,7.2,0c1.6,1.2,3.8,1.2,5.4,0c2.2-1.6,5.1-1.6,7.2,0c1.6,1.2,3.8,1.2,5.4,0   c2.2-1.6,5.1-1.6,7.2,0c1.6,1.2,3.8,1.2,5.4,0l2.9-2.2l0.8,0v-1.6l-0.8,0L61,57.5z"/><path d="M42.9,21.5c1.7-3.8,0.3-8.7-3.2-11.1C37.5,14.5,39,19.3,42.9,21.5z"/><path d="M50.7,18.7c0.8,0.5,1.2,1.4,1.3,2.3c0.8-0.6,1.5-1.4,2-2.2c-3.7-2.4-5.4-7.7-3.5-12   c-1.7-0.8-3.7-1-5.5-0.5l3.5,12C49.3,18.1,50.1,18.3,50.7,18.7z"/><path d="M54.4,18.2c2.1-3.9,0.7-8.8-3.2-11.1C49.5,10.9,50.9,15.8,54.4,18.2z"/><path d="M43.5,21.9c0.3,0.1,0.6,0.3,0.8,0.4c1-1,1.8-2,2.2-2.7c0.3-0.5,0.8-0.9,1.3-1.1l-3.5-12   C42.5,7.1,41,8.3,40,9.9C43.9,12.5,45.3,17.8,43.5,21.9z"/><path d="M50.1,19.6c-0.9-0.6-2.2-0.4-2.8,0.5c-4,5.8-11.1,10.2-18.9,5c-0.9-0.6-2.2-0.4-2.8,0.6   c-0.6,0.9-0.4,2.2,0.6,2.8c8.8,5.8,18.3,2.9,24.4-6.1C51.3,21.4,51.1,20.2,50.1,19.6z"/></g></svg>